<mxfile host="Electron" modified="2024-06-30T06:41:14.114Z" agent="Mozilla/5.0 (Windows NT 10.0; Win64; x64) AppleWebKit/537.36 (KHTML, like Gecko) draw.io/24.2.5 Chrome/120.0.6099.109 Electron/28.1.0 Safari/537.36" etag="Xgd_efomATFX-pKimRp8" version="24.2.5" type="device">
  <diagram name="Page-1" id="8xYM42d7-HRlow7HAVIq">
    <mxGraphModel dx="2074" dy="1205" grid="1" gridSize="10" guides="1" tooltips="1" connect="1" arrows="1" fold="1" page="1" pageScale="1" pageWidth="827" pageHeight="1169" math="0" shadow="0">
      <root>
        <mxCell id="0" />
        <mxCell id="1" parent="0" />
        <mxCell id="TS2SDkIP9VQhJ0hy-PQh-178" value="" style="rounded=0;whiteSpace=wrap;html=1;fillColor=#cce5ff;strokeColor=#36393d;" vertex="1" parent="1">
          <mxGeometry x="30" y="400" width="750" height="820" as="geometry" />
        </mxCell>
        <mxCell id="TS2SDkIP9VQhJ0hy-PQh-1" value="" style="shape=table;startSize=0;container=1;collapsible=0;childLayout=tableLayout;fontSize=16;fillColor=#cdeb8b;strokeColor=#36393d;" vertex="1" parent="1">
          <mxGeometry x="80" y="480" width="367" height="30" as="geometry" />
        </mxCell>
        <mxCell id="TS2SDkIP9VQhJ0hy-PQh-2" value="" style="shape=tableRow;horizontal=0;startSize=0;swimlaneHead=0;swimlaneBody=0;strokeColor=inherit;top=0;left=0;bottom=0;right=0;collapsible=0;dropTarget=0;fillColor=none;points=[[0,0.5],[1,0.5]];portConstraint=eastwest;fontSize=16;" vertex="1" parent="TS2SDkIP9VQhJ0hy-PQh-1">
          <mxGeometry width="367" height="30" as="geometry" />
        </mxCell>
        <mxCell id="TS2SDkIP9VQhJ0hy-PQh-22" style="shape=partialRectangle;html=1;whiteSpace=wrap;connectable=0;strokeColor=inherit;overflow=hidden;fillColor=none;top=0;left=0;bottom=0;right=0;pointerEvents=1;fontSize=16;" vertex="1" parent="TS2SDkIP9VQhJ0hy-PQh-2">
          <mxGeometry width="46" height="30" as="geometry">
            <mxRectangle width="46" height="30" as="alternateBounds" />
          </mxGeometry>
        </mxCell>
        <mxCell id="TS2SDkIP9VQhJ0hy-PQh-21" style="shape=partialRectangle;html=1;whiteSpace=wrap;connectable=0;strokeColor=inherit;overflow=hidden;fillColor=none;top=0;left=0;bottom=0;right=0;pointerEvents=1;fontSize=16;" vertex="1" parent="TS2SDkIP9VQhJ0hy-PQh-2">
          <mxGeometry x="46" width="46" height="30" as="geometry">
            <mxRectangle width="46" height="30" as="alternateBounds" />
          </mxGeometry>
        </mxCell>
        <mxCell id="TS2SDkIP9VQhJ0hy-PQh-20" style="shape=partialRectangle;html=1;whiteSpace=wrap;connectable=0;strokeColor=inherit;overflow=hidden;fillColor=none;top=0;left=0;bottom=0;right=0;pointerEvents=1;fontSize=16;" vertex="1" parent="TS2SDkIP9VQhJ0hy-PQh-2">
          <mxGeometry x="92" width="46" height="30" as="geometry">
            <mxRectangle width="46" height="30" as="alternateBounds" />
          </mxGeometry>
        </mxCell>
        <mxCell id="TS2SDkIP9VQhJ0hy-PQh-19" style="shape=partialRectangle;html=1;whiteSpace=wrap;connectable=0;strokeColor=inherit;overflow=hidden;fillColor=none;top=0;left=0;bottom=0;right=0;pointerEvents=1;fontSize=16;" vertex="1" parent="TS2SDkIP9VQhJ0hy-PQh-2">
          <mxGeometry x="138" width="45" height="30" as="geometry">
            <mxRectangle width="45" height="30" as="alternateBounds" />
          </mxGeometry>
        </mxCell>
        <mxCell id="TS2SDkIP9VQhJ0hy-PQh-18" style="shape=partialRectangle;html=1;whiteSpace=wrap;connectable=0;strokeColor=inherit;overflow=hidden;fillColor=none;top=0;left=0;bottom=0;right=0;pointerEvents=1;fontSize=16;" vertex="1" parent="TS2SDkIP9VQhJ0hy-PQh-2">
          <mxGeometry x="183" width="46" height="30" as="geometry">
            <mxRectangle width="46" height="30" as="alternateBounds" />
          </mxGeometry>
        </mxCell>
        <mxCell id="TS2SDkIP9VQhJ0hy-PQh-17" style="shape=partialRectangle;html=1;whiteSpace=wrap;connectable=0;strokeColor=inherit;overflow=hidden;fillColor=none;top=0;left=0;bottom=0;right=0;pointerEvents=1;fontSize=16;" vertex="1" parent="TS2SDkIP9VQhJ0hy-PQh-2">
          <mxGeometry x="229" width="46" height="30" as="geometry">
            <mxRectangle width="46" height="30" as="alternateBounds" />
          </mxGeometry>
        </mxCell>
        <mxCell id="TS2SDkIP9VQhJ0hy-PQh-3" value="" style="shape=partialRectangle;html=1;whiteSpace=wrap;connectable=0;strokeColor=inherit;overflow=hidden;fillColor=none;top=0;left=0;bottom=0;right=0;pointerEvents=1;fontSize=16;" vertex="1" parent="TS2SDkIP9VQhJ0hy-PQh-2">
          <mxGeometry x="275" width="46" height="30" as="geometry">
            <mxRectangle width="46" height="30" as="alternateBounds" />
          </mxGeometry>
        </mxCell>
        <mxCell id="TS2SDkIP9VQhJ0hy-PQh-4" value="" style="shape=partialRectangle;html=1;whiteSpace=wrap;connectable=0;strokeColor=inherit;overflow=hidden;fillColor=none;top=0;left=0;bottom=0;right=0;pointerEvents=1;fontSize=16;" vertex="1" parent="TS2SDkIP9VQhJ0hy-PQh-2">
          <mxGeometry x="321" width="46" height="30" as="geometry">
            <mxRectangle width="46" height="30" as="alternateBounds" />
          </mxGeometry>
        </mxCell>
        <mxCell id="TS2SDkIP9VQhJ0hy-PQh-23" value="" style="shape=curlyBracket;whiteSpace=wrap;html=1;rounded=1;flipH=1;labelPosition=right;verticalLabelPosition=middle;align=left;verticalAlign=middle;direction=south;" vertex="1" parent="1">
          <mxGeometry x="80" y="450" width="360" height="20" as="geometry" />
        </mxCell>
        <mxCell id="TS2SDkIP9VQhJ0hy-PQh-25" value="Warp Size = 32" style="text;html=1;align=center;verticalAlign=middle;whiteSpace=wrap;rounded=0;" vertex="1" parent="1">
          <mxGeometry x="206" y="420" width="115" height="30" as="geometry" />
        </mxCell>
        <mxCell id="TS2SDkIP9VQhJ0hy-PQh-26" value="" style="shape=table;startSize=0;container=1;collapsible=0;childLayout=tableLayout;fontSize=16;fillColor=#ffcc99;strokeColor=#36393d;" vertex="1" parent="1">
          <mxGeometry x="80" y="570" width="183" height="30" as="geometry" />
        </mxCell>
        <mxCell id="TS2SDkIP9VQhJ0hy-PQh-27" value="" style="shape=tableRow;horizontal=0;startSize=0;swimlaneHead=0;swimlaneBody=0;strokeColor=inherit;top=0;left=0;bottom=0;right=0;collapsible=0;dropTarget=0;fillColor=none;points=[[0,0.5],[1,0.5]];portConstraint=eastwest;fontSize=16;" vertex="1" parent="TS2SDkIP9VQhJ0hy-PQh-26">
          <mxGeometry width="183" height="30" as="geometry" />
        </mxCell>
        <mxCell id="TS2SDkIP9VQhJ0hy-PQh-28" style="shape=partialRectangle;html=1;whiteSpace=wrap;connectable=0;strokeColor=inherit;overflow=hidden;fillColor=none;top=0;left=0;bottom=0;right=0;pointerEvents=1;fontSize=16;" vertex="1" parent="TS2SDkIP9VQhJ0hy-PQh-27">
          <mxGeometry width="46" height="30" as="geometry">
            <mxRectangle width="46" height="30" as="alternateBounds" />
          </mxGeometry>
        </mxCell>
        <mxCell id="TS2SDkIP9VQhJ0hy-PQh-29" style="shape=partialRectangle;html=1;whiteSpace=wrap;connectable=0;strokeColor=inherit;overflow=hidden;fillColor=none;top=0;left=0;bottom=0;right=0;pointerEvents=1;fontSize=16;" vertex="1" parent="TS2SDkIP9VQhJ0hy-PQh-27">
          <mxGeometry x="46" width="46" height="30" as="geometry">
            <mxRectangle width="46" height="30" as="alternateBounds" />
          </mxGeometry>
        </mxCell>
        <mxCell id="TS2SDkIP9VQhJ0hy-PQh-30" style="shape=partialRectangle;html=1;whiteSpace=wrap;connectable=0;strokeColor=inherit;overflow=hidden;fillColor=none;top=0;left=0;bottom=0;right=0;pointerEvents=1;fontSize=16;" vertex="1" parent="TS2SDkIP9VQhJ0hy-PQh-27">
          <mxGeometry x="92" width="46" height="30" as="geometry">
            <mxRectangle width="46" height="30" as="alternateBounds" />
          </mxGeometry>
        </mxCell>
        <mxCell id="TS2SDkIP9VQhJ0hy-PQh-31" style="shape=partialRectangle;html=1;whiteSpace=wrap;connectable=0;strokeColor=inherit;overflow=hidden;fillColor=none;top=0;left=0;bottom=0;right=0;pointerEvents=1;fontSize=16;" vertex="1" parent="TS2SDkIP9VQhJ0hy-PQh-27">
          <mxGeometry x="138" width="45" height="30" as="geometry">
            <mxRectangle width="45" height="30" as="alternateBounds" />
          </mxGeometry>
        </mxCell>
        <mxCell id="TS2SDkIP9VQhJ0hy-PQh-40" style="shape=partialRectangle;html=1;whiteSpace=wrap;connectable=0;strokeColor=inherit;overflow=hidden;fillColor=none;top=0;left=0;bottom=0;right=0;pointerEvents=1;fontSize=16;" vertex="1" parent="1">
          <mxGeometry x="273" y="550" width="46" height="30" as="geometry">
            <mxRectangle width="46" height="30" as="alternateBounds" />
          </mxGeometry>
        </mxCell>
        <mxCell id="TS2SDkIP9VQhJ0hy-PQh-41" value="" style="shape=table;startSize=0;container=1;collapsible=0;childLayout=tableLayout;fontSize=16;fillColor=#ffcccc;strokeColor=#36393d;" vertex="1" parent="1">
          <mxGeometry x="273" y="570" width="183" height="30" as="geometry" />
        </mxCell>
        <mxCell id="TS2SDkIP9VQhJ0hy-PQh-42" value="" style="shape=tableRow;horizontal=0;startSize=0;swimlaneHead=0;swimlaneBody=0;strokeColor=inherit;top=0;left=0;bottom=0;right=0;collapsible=0;dropTarget=0;fillColor=none;points=[[0,0.5],[1,0.5]];portConstraint=eastwest;fontSize=16;" vertex="1" parent="TS2SDkIP9VQhJ0hy-PQh-41">
          <mxGeometry width="183" height="30" as="geometry" />
        </mxCell>
        <mxCell id="TS2SDkIP9VQhJ0hy-PQh-43" style="shape=partialRectangle;html=1;whiteSpace=wrap;connectable=0;strokeColor=inherit;overflow=hidden;fillColor=none;top=0;left=0;bottom=0;right=0;pointerEvents=1;fontSize=16;" vertex="1" parent="TS2SDkIP9VQhJ0hy-PQh-42">
          <mxGeometry width="46" height="30" as="geometry">
            <mxRectangle width="46" height="30" as="alternateBounds" />
          </mxGeometry>
        </mxCell>
        <mxCell id="TS2SDkIP9VQhJ0hy-PQh-44" style="shape=partialRectangle;html=1;whiteSpace=wrap;connectable=0;strokeColor=inherit;overflow=hidden;fillColor=none;top=0;left=0;bottom=0;right=0;pointerEvents=1;fontSize=16;" vertex="1" parent="TS2SDkIP9VQhJ0hy-PQh-42">
          <mxGeometry x="46" width="46" height="30" as="geometry">
            <mxRectangle width="46" height="30" as="alternateBounds" />
          </mxGeometry>
        </mxCell>
        <mxCell id="TS2SDkIP9VQhJ0hy-PQh-45" style="shape=partialRectangle;html=1;whiteSpace=wrap;connectable=0;strokeColor=inherit;overflow=hidden;fillColor=none;top=0;left=0;bottom=0;right=0;pointerEvents=1;fontSize=16;" vertex="1" parent="TS2SDkIP9VQhJ0hy-PQh-42">
          <mxGeometry x="92" width="46" height="30" as="geometry">
            <mxRectangle width="46" height="30" as="alternateBounds" />
          </mxGeometry>
        </mxCell>
        <mxCell id="TS2SDkIP9VQhJ0hy-PQh-46" style="shape=partialRectangle;html=1;whiteSpace=wrap;connectable=0;strokeColor=inherit;overflow=hidden;fillColor=none;top=0;left=0;bottom=0;right=0;pointerEvents=1;fontSize=16;" vertex="1" parent="TS2SDkIP9VQhJ0hy-PQh-42">
          <mxGeometry x="138" width="45" height="30" as="geometry">
            <mxRectangle width="45" height="30" as="alternateBounds" />
          </mxGeometry>
        </mxCell>
        <mxCell id="TS2SDkIP9VQhJ0hy-PQh-49" value="quant and unquant the interpolation weight" style="text;html=1;align=center;verticalAlign=middle;whiteSpace=wrap;rounded=0;fontSize=15;" vertex="1" parent="1">
          <mxGeometry x="470" y="535" width="310" height="30" as="geometry" />
        </mxCell>
        <mxCell id="TS2SDkIP9VQhJ0hy-PQh-50" value="" style="shape=curlyBracket;whiteSpace=wrap;html=1;rounded=1;flipH=1;labelPosition=right;verticalLabelPosition=middle;align=left;verticalAlign=middle;direction=north;" vertex="1" parent="1">
          <mxGeometry x="80" y="515" width="180" height="20" as="geometry" />
        </mxCell>
        <mxCell id="TS2SDkIP9VQhJ0hy-PQh-51" value="Texel Count = 16" style="text;html=1;align=center;verticalAlign=middle;whiteSpace=wrap;rounded=0;" vertex="1" parent="1">
          <mxGeometry x="108.75" y="540" width="122.5" height="30" as="geometry" />
        </mxCell>
        <mxCell id="TS2SDkIP9VQhJ0hy-PQh-52" value="" style="shape=curlyBracket;whiteSpace=wrap;html=1;rounded=1;flipH=1;labelPosition=right;verticalLabelPosition=middle;align=left;verticalAlign=middle;direction=north;" vertex="1" parent="1">
          <mxGeometry x="260" y="515" width="190" height="20" as="geometry" />
        </mxCell>
        <mxCell id="TS2SDkIP9VQhJ0hy-PQh-53" value="Texel Count = 16" style="text;html=1;align=center;verticalAlign=middle;whiteSpace=wrap;rounded=0;" vertex="1" parent="1">
          <mxGeometry x="288.75" y="540" width="122.5" height="30" as="geometry" />
        </mxCell>
        <mxCell id="TS2SDkIP9VQhJ0hy-PQh-54" value="" style="shape=table;startSize=0;container=1;collapsible=0;childLayout=tableLayout;fontSize=16;fillColor=#ffcc99;strokeColor=#36393d;" vertex="1" parent="1">
          <mxGeometry x="80" y="640" width="92" height="30" as="geometry" />
        </mxCell>
        <mxCell id="TS2SDkIP9VQhJ0hy-PQh-55" value="" style="shape=tableRow;horizontal=0;startSize=0;swimlaneHead=0;swimlaneBody=0;strokeColor=inherit;top=0;left=0;bottom=0;right=0;collapsible=0;dropTarget=0;fillColor=none;points=[[0,0.5],[1,0.5]];portConstraint=eastwest;fontSize=16;" vertex="1" parent="TS2SDkIP9VQhJ0hy-PQh-54">
          <mxGeometry width="92" height="30" as="geometry" />
        </mxCell>
        <mxCell id="TS2SDkIP9VQhJ0hy-PQh-56" style="shape=partialRectangle;html=1;whiteSpace=wrap;connectable=0;strokeColor=inherit;overflow=hidden;fillColor=none;top=0;left=0;bottom=0;right=0;pointerEvents=1;fontSize=16;" vertex="1" parent="TS2SDkIP9VQhJ0hy-PQh-55">
          <mxGeometry width="46" height="30" as="geometry">
            <mxRectangle width="46" height="30" as="alternateBounds" />
          </mxGeometry>
        </mxCell>
        <mxCell id="TS2SDkIP9VQhJ0hy-PQh-57" style="shape=partialRectangle;html=1;whiteSpace=wrap;connectable=0;strokeColor=inherit;overflow=hidden;fillColor=none;top=0;left=0;bottom=0;right=0;pointerEvents=1;fontSize=16;" vertex="1" parent="TS2SDkIP9VQhJ0hy-PQh-55">
          <mxGeometry x="46" width="46" height="30" as="geometry">
            <mxRectangle width="46" height="30" as="alternateBounds" />
          </mxGeometry>
        </mxCell>
        <mxCell id="TS2SDkIP9VQhJ0hy-PQh-62" value="" style="shape=table;startSize=0;container=1;collapsible=0;childLayout=tableLayout;fontSize=16;fillColor=#ffcccc;strokeColor=#36393d;" vertex="1" parent="1">
          <mxGeometry x="273" y="640" width="92" height="30" as="geometry" />
        </mxCell>
        <mxCell id="TS2SDkIP9VQhJ0hy-PQh-63" value="" style="shape=tableRow;horizontal=0;startSize=0;swimlaneHead=0;swimlaneBody=0;strokeColor=inherit;top=0;left=0;bottom=0;right=0;collapsible=0;dropTarget=0;fillColor=none;points=[[0,0.5],[1,0.5]];portConstraint=eastwest;fontSize=16;" vertex="1" parent="TS2SDkIP9VQhJ0hy-PQh-62">
          <mxGeometry width="92" height="30" as="geometry" />
        </mxCell>
        <mxCell id="TS2SDkIP9VQhJ0hy-PQh-64" style="shape=partialRectangle;html=1;whiteSpace=wrap;connectable=0;strokeColor=inherit;overflow=hidden;fillColor=none;top=0;left=0;bottom=0;right=0;pointerEvents=1;fontSize=16;" vertex="1" parent="TS2SDkIP9VQhJ0hy-PQh-63">
          <mxGeometry width="46" height="30" as="geometry">
            <mxRectangle width="46" height="30" as="alternateBounds" />
          </mxGeometry>
        </mxCell>
        <mxCell id="TS2SDkIP9VQhJ0hy-PQh-65" style="shape=partialRectangle;html=1;whiteSpace=wrap;connectable=0;strokeColor=inherit;overflow=hidden;fillColor=none;top=0;left=0;bottom=0;right=0;pointerEvents=1;fontSize=16;" vertex="1" parent="TS2SDkIP9VQhJ0hy-PQh-63">
          <mxGeometry x="46" width="46" height="30" as="geometry">
            <mxRectangle width="46" height="30" as="alternateBounds" />
          </mxGeometry>
        </mxCell>
        <mxCell id="TS2SDkIP9VQhJ0hy-PQh-68" value="error += __shfl_down_sync(0xFFFFFFFF, error, 8, 32)" style="text;html=1;align=center;verticalAlign=middle;whiteSpace=wrap;rounded=0;fontSize=15;" vertex="1" parent="1">
          <mxGeometry x="380" y="680" width="400" height="30" as="geometry" />
        </mxCell>
        <mxCell id="TS2SDkIP9VQhJ0hy-PQh-69" value="reduce" style="text;html=1;align=center;verticalAlign=middle;whiteSpace=wrap;rounded=0;fontSize=15;" vertex="1" parent="1">
          <mxGeometry x="434" y="610" width="60" height="30" as="geometry" />
        </mxCell>
        <mxCell id="TS2SDkIP9VQhJ0hy-PQh-72" value="" style="endArrow=classic;html=1;rounded=0;exitX=0.095;exitY=0.956;exitDx=0;exitDy=0;exitPerimeter=0;entryX=0.174;entryY=0.044;entryDx=0;entryDy=0;entryPerimeter=0;" edge="1" parent="1" source="TS2SDkIP9VQhJ0hy-PQh-27" target="TS2SDkIP9VQhJ0hy-PQh-55">
          <mxGeometry width="50" height="50" relative="1" as="geometry">
            <mxPoint x="100" y="600" as="sourcePoint" />
            <mxPoint x="99" y="641" as="targetPoint" />
          </mxGeometry>
        </mxCell>
        <mxCell id="TS2SDkIP9VQhJ0hy-PQh-73" value="" style="endArrow=classic;html=1;rounded=0;entryX=0.159;entryY=-0.111;entryDx=0;entryDy=0;entryPerimeter=0;exitX=0.579;exitY=0.978;exitDx=0;exitDy=0;exitPerimeter=0;" edge="1" parent="1" source="TS2SDkIP9VQhJ0hy-PQh-27" target="TS2SDkIP9VQhJ0hy-PQh-55">
          <mxGeometry width="50" height="50" relative="1" as="geometry">
            <mxPoint x="114" y="610" as="sourcePoint" />
            <mxPoint x="112" y="652" as="targetPoint" />
          </mxGeometry>
        </mxCell>
        <mxCell id="TS2SDkIP9VQhJ0hy-PQh-74" value="" style="endArrow=classic;html=1;rounded=0;exitX=0.375;exitY=1.022;exitDx=0;exitDy=0;exitPerimeter=0;" edge="1" parent="1" source="TS2SDkIP9VQhJ0hy-PQh-27">
          <mxGeometry width="50" height="50" relative="1" as="geometry">
            <mxPoint x="114" y="610" as="sourcePoint" />
            <mxPoint x="149" y="640" as="targetPoint" />
          </mxGeometry>
        </mxCell>
        <mxCell id="TS2SDkIP9VQhJ0hy-PQh-76" value="" style="endArrow=classic;html=1;rounded=0;entryX=0.761;entryY=0.022;entryDx=0;entryDy=0;entryPerimeter=0;exitX=0.849;exitY=1.044;exitDx=0;exitDy=0;exitPerimeter=0;" edge="1" parent="1" source="TS2SDkIP9VQhJ0hy-PQh-27" target="TS2SDkIP9VQhJ0hy-PQh-55">
          <mxGeometry width="50" height="50" relative="1" as="geometry">
            <mxPoint x="292" y="600" as="sourcePoint" />
            <mxPoint x="156.25" y="630" as="targetPoint" />
          </mxGeometry>
        </mxCell>
        <mxCell id="TS2SDkIP9VQhJ0hy-PQh-78" value="" style="endArrow=classic;html=1;rounded=0;entryX=0.199;entryY=0.089;entryDx=0;entryDy=0;entryPerimeter=0;" edge="1" parent="1" target="TS2SDkIP9VQhJ0hy-PQh-63">
          <mxGeometry width="50" height="50" relative="1" as="geometry">
            <mxPoint x="291" y="600" as="sourcePoint" />
            <mxPoint x="381" y="640" as="targetPoint" />
          </mxGeometry>
        </mxCell>
        <mxCell id="TS2SDkIP9VQhJ0hy-PQh-81" value="" style="endArrow=classic;html=1;rounded=0;exitX=0.617;exitY=1.044;exitDx=0;exitDy=0;exitPerimeter=0;entryX=0.214;entryY=0;entryDx=0;entryDy=0;entryPerimeter=0;" edge="1" parent="1" source="TS2SDkIP9VQhJ0hy-PQh-42" target="TS2SDkIP9VQhJ0hy-PQh-63">
          <mxGeometry width="50" height="50" relative="1" as="geometry">
            <mxPoint x="575" y="611" as="sourcePoint" />
            <mxPoint x="380" y="640" as="targetPoint" />
          </mxGeometry>
        </mxCell>
        <mxCell id="TS2SDkIP9VQhJ0hy-PQh-83" value="" style="endArrow=classic;html=1;rounded=0;exitX=0.355;exitY=1.044;exitDx=0;exitDy=0;exitPerimeter=0;entryX=0.721;entryY=-0.022;entryDx=0;entryDy=0;entryPerimeter=0;" edge="1" parent="1" source="TS2SDkIP9VQhJ0hy-PQh-42" target="TS2SDkIP9VQhJ0hy-PQh-63">
          <mxGeometry width="50" height="50" relative="1" as="geometry">
            <mxPoint x="391" y="613" as="sourcePoint" />
            <mxPoint x="470" y="640" as="targetPoint" />
          </mxGeometry>
        </mxCell>
        <mxCell id="TS2SDkIP9VQhJ0hy-PQh-84" value="" style="shape=table;startSize=0;container=1;collapsible=0;childLayout=tableLayout;fontSize=16;fillColor=#ffcc99;strokeColor=#36393d;" vertex="1" parent="1">
          <mxGeometry x="80" y="710" width="46" height="30" as="geometry" />
        </mxCell>
        <mxCell id="TS2SDkIP9VQhJ0hy-PQh-85" value="" style="shape=tableRow;horizontal=0;startSize=0;swimlaneHead=0;swimlaneBody=0;strokeColor=inherit;top=0;left=0;bottom=0;right=0;collapsible=0;dropTarget=0;fillColor=none;points=[[0,0.5],[1,0.5]];portConstraint=eastwest;fontSize=16;" vertex="1" parent="TS2SDkIP9VQhJ0hy-PQh-84">
          <mxGeometry width="46" height="30" as="geometry" />
        </mxCell>
        <mxCell id="TS2SDkIP9VQhJ0hy-PQh-86" style="shape=partialRectangle;html=1;whiteSpace=wrap;connectable=0;strokeColor=inherit;overflow=hidden;fillColor=none;top=0;left=0;bottom=0;right=0;pointerEvents=1;fontSize=16;" vertex="1" parent="TS2SDkIP9VQhJ0hy-PQh-85">
          <mxGeometry width="46" height="30" as="geometry">
            <mxRectangle width="46" height="30" as="alternateBounds" />
          </mxGeometry>
        </mxCell>
        <mxCell id="TS2SDkIP9VQhJ0hy-PQh-89" value="" style="shape=table;startSize=0;container=1;collapsible=0;childLayout=tableLayout;fontSize=16;fillColor=#ffcccc;strokeColor=#36393d;" vertex="1" parent="1">
          <mxGeometry x="273" y="710" width="46" height="30" as="geometry" />
        </mxCell>
        <mxCell id="TS2SDkIP9VQhJ0hy-PQh-90" value="" style="shape=tableRow;horizontal=0;startSize=0;swimlaneHead=0;swimlaneBody=0;strokeColor=inherit;top=0;left=0;bottom=0;right=0;collapsible=0;dropTarget=0;fillColor=none;points=[[0,0.5],[1,0.5]];portConstraint=eastwest;fontSize=16;" vertex="1" parent="TS2SDkIP9VQhJ0hy-PQh-89">
          <mxGeometry width="46" height="30" as="geometry" />
        </mxCell>
        <mxCell id="TS2SDkIP9VQhJ0hy-PQh-91" style="shape=partialRectangle;html=1;whiteSpace=wrap;connectable=0;strokeColor=inherit;overflow=hidden;fillColor=none;top=0;left=0;bottom=0;right=0;pointerEvents=1;fontSize=16;" vertex="1" parent="TS2SDkIP9VQhJ0hy-PQh-90">
          <mxGeometry width="46" height="30" as="geometry">
            <mxRectangle width="46" height="30" as="alternateBounds" />
          </mxGeometry>
        </mxCell>
        <mxCell id="TS2SDkIP9VQhJ0hy-PQh-92" value="" style="endArrow=classic;html=1;rounded=0;exitX=0.082;exitY=0.956;exitDx=0;exitDy=0;exitPerimeter=0;" edge="1" parent="1">
          <mxGeometry width="50" height="50" relative="1" as="geometry">
            <mxPoint x="103.5" y="670" as="sourcePoint" />
            <mxPoint x="103" y="710" as="targetPoint" />
          </mxGeometry>
        </mxCell>
        <mxCell id="TS2SDkIP9VQhJ0hy-PQh-93" value="" style="endArrow=classic;html=1;rounded=0;exitX=0.865;exitY=1.022;exitDx=0;exitDy=0;exitPerimeter=0;" edge="1" parent="1" source="TS2SDkIP9VQhJ0hy-PQh-55">
          <mxGeometry width="50" height="50" relative="1" as="geometry">
            <mxPoint x="113.5" y="680" as="sourcePoint" />
            <mxPoint x="110" y="710" as="targetPoint" />
          </mxGeometry>
        </mxCell>
        <mxCell id="TS2SDkIP9VQhJ0hy-PQh-95" value="" style="endArrow=classic;html=1;rounded=0;exitX=0.876;exitY=1.044;exitDx=0;exitDy=0;exitPerimeter=0;entryX=0.837;entryY=0;entryDx=0;entryDy=0;entryPerimeter=0;" edge="1" parent="1" source="TS2SDkIP9VQhJ0hy-PQh-42" target="TS2SDkIP9VQhJ0hy-PQh-63">
          <mxGeometry width="50" height="50" relative="1" as="geometry">
            <mxPoint x="374" y="613" as="sourcePoint" />
            <mxPoint x="303" y="650" as="targetPoint" />
          </mxGeometry>
        </mxCell>
        <mxCell id="TS2SDkIP9VQhJ0hy-PQh-96" value="" style="endArrow=classic;html=1;rounded=0;exitX=0.082;exitY=0.956;exitDx=0;exitDy=0;exitPerimeter=0;" edge="1" parent="1">
          <mxGeometry width="50" height="50" relative="1" as="geometry">
            <mxPoint x="289.25" y="670" as="sourcePoint" />
            <mxPoint x="288.75" y="710" as="targetPoint" />
          </mxGeometry>
        </mxCell>
        <mxCell id="TS2SDkIP9VQhJ0hy-PQh-97" value="" style="endArrow=classic;html=1;rounded=0;exitX=0.865;exitY=1.022;exitDx=0;exitDy=0;exitPerimeter=0;" edge="1" parent="1">
          <mxGeometry width="50" height="50" relative="1" as="geometry">
            <mxPoint x="338.75" y="671" as="sourcePoint" />
            <mxPoint x="288.75" y="710" as="targetPoint" />
          </mxGeometry>
        </mxCell>
        <mxCell id="TS2SDkIP9VQhJ0hy-PQh-99" value="" style="shape=table;startSize=0;container=1;collapsible=0;childLayout=tableLayout;fontSize=16;fillColor=#f8cecc;strokeColor=#b85450;" vertex="1" parent="1">
          <mxGeometry x="80" y="810" width="92" height="30" as="geometry" />
        </mxCell>
        <mxCell id="TS2SDkIP9VQhJ0hy-PQh-100" value="" style="shape=tableRow;horizontal=0;startSize=0;swimlaneHead=0;swimlaneBody=0;strokeColor=inherit;top=0;left=0;bottom=0;right=0;collapsible=0;dropTarget=0;fillColor=none;points=[[0,0.5],[1,0.5]];portConstraint=eastwest;fontSize=16;" vertex="1" parent="TS2SDkIP9VQhJ0hy-PQh-99">
          <mxGeometry width="92" height="30" as="geometry" />
        </mxCell>
        <mxCell id="TS2SDkIP9VQhJ0hy-PQh-101" style="shape=partialRectangle;html=1;whiteSpace=wrap;connectable=0;strokeColor=inherit;overflow=hidden;fillColor=none;top=0;left=0;bottom=0;right=0;pointerEvents=1;fontSize=16;" vertex="1" parent="TS2SDkIP9VQhJ0hy-PQh-100">
          <mxGeometry width="46" height="30" as="geometry">
            <mxRectangle width="46" height="30" as="alternateBounds" />
          </mxGeometry>
        </mxCell>
        <mxCell id="TS2SDkIP9VQhJ0hy-PQh-102" style="shape=partialRectangle;html=1;whiteSpace=wrap;connectable=0;strokeColor=inherit;overflow=hidden;fillColor=none;top=0;left=0;bottom=0;right=0;pointerEvents=1;fontSize=16;" vertex="1" parent="TS2SDkIP9VQhJ0hy-PQh-100">
          <mxGeometry x="46" width="46" height="30" as="geometry">
            <mxRectangle width="46" height="30" as="alternateBounds" />
          </mxGeometry>
        </mxCell>
        <mxCell id="TS2SDkIP9VQhJ0hy-PQh-103" value="" style="shape=table;startSize=0;container=1;collapsible=0;childLayout=tableLayout;fontSize=16;fillColor=#ffe6cc;strokeColor=#d79b00;" vertex="1" parent="1">
          <mxGeometry x="273" y="810" width="92" height="30" as="geometry" />
        </mxCell>
        <mxCell id="TS2SDkIP9VQhJ0hy-PQh-104" value="" style="shape=tableRow;horizontal=0;startSize=0;swimlaneHead=0;swimlaneBody=0;strokeColor=inherit;top=0;left=0;bottom=0;right=0;collapsible=0;dropTarget=0;fillColor=none;points=[[0,0.5],[1,0.5]];portConstraint=eastwest;fontSize=16;" vertex="1" parent="TS2SDkIP9VQhJ0hy-PQh-103">
          <mxGeometry width="92" height="30" as="geometry" />
        </mxCell>
        <mxCell id="TS2SDkIP9VQhJ0hy-PQh-105" style="shape=partialRectangle;html=1;whiteSpace=wrap;connectable=0;strokeColor=inherit;overflow=hidden;fillColor=none;top=0;left=0;bottom=0;right=0;pointerEvents=1;fontSize=16;" vertex="1" parent="TS2SDkIP9VQhJ0hy-PQh-104">
          <mxGeometry width="46" height="30" as="geometry">
            <mxRectangle width="46" height="30" as="alternateBounds" />
          </mxGeometry>
        </mxCell>
        <mxCell id="TS2SDkIP9VQhJ0hy-PQh-106" style="shape=partialRectangle;html=1;whiteSpace=wrap;connectable=0;strokeColor=inherit;overflow=hidden;fillColor=none;top=0;left=0;bottom=0;right=0;pointerEvents=1;fontSize=16;" vertex="1" parent="TS2SDkIP9VQhJ0hy-PQh-104">
          <mxGeometry x="46" width="46" height="30" as="geometry">
            <mxRectangle width="46" height="30" as="alternateBounds" />
          </mxGeometry>
        </mxCell>
        <mxCell id="TS2SDkIP9VQhJ0hy-PQh-107" value="compute combination error for int count 1 - 4" style="text;html=1;align=center;verticalAlign=middle;whiteSpace=wrap;rounded=0;fontSize=15;" vertex="1" parent="1">
          <mxGeometry x="370" y="790" width="364" height="30" as="geometry" />
        </mxCell>
        <mxCell id="TS2SDkIP9VQhJ0hy-PQh-108" value="" style="shape=table;startSize=0;container=1;collapsible=0;childLayout=tableLayout;fontSize=16;fillColor=#f8cecc;strokeColor=#b85450;" vertex="1" parent="1">
          <mxGeometry x="80" y="880" width="46" height="30" as="geometry" />
        </mxCell>
        <mxCell id="TS2SDkIP9VQhJ0hy-PQh-109" value="" style="shape=tableRow;horizontal=0;startSize=0;swimlaneHead=0;swimlaneBody=0;strokeColor=inherit;top=0;left=0;bottom=0;right=0;collapsible=0;dropTarget=0;fillColor=none;points=[[0,0.5],[1,0.5]];portConstraint=eastwest;fontSize=16;" vertex="1" parent="TS2SDkIP9VQhJ0hy-PQh-108">
          <mxGeometry width="46" height="30" as="geometry" />
        </mxCell>
        <mxCell id="TS2SDkIP9VQhJ0hy-PQh-110" style="shape=partialRectangle;html=1;whiteSpace=wrap;connectable=0;strokeColor=inherit;overflow=hidden;fillColor=none;top=0;left=0;bottom=0;right=0;pointerEvents=1;fontSize=16;" vertex="1" parent="TS2SDkIP9VQhJ0hy-PQh-109">
          <mxGeometry width="46" height="30" as="geometry">
            <mxRectangle width="46" height="30" as="alternateBounds" />
          </mxGeometry>
        </mxCell>
        <mxCell id="TS2SDkIP9VQhJ0hy-PQh-111" value="" style="endArrow=classic;html=1;rounded=0;exitX=0.082;exitY=0.956;exitDx=0;exitDy=0;exitPerimeter=0;" edge="1" parent="1">
          <mxGeometry width="50" height="50" relative="1" as="geometry">
            <mxPoint x="103.5" y="840" as="sourcePoint" />
            <mxPoint x="103" y="880" as="targetPoint" />
          </mxGeometry>
        </mxCell>
        <mxCell id="TS2SDkIP9VQhJ0hy-PQh-112" value="" style="endArrow=classic;html=1;rounded=0;exitX=0.865;exitY=1.022;exitDx=0;exitDy=0;exitPerimeter=0;" edge="1" parent="1">
          <mxGeometry width="50" height="50" relative="1" as="geometry">
            <mxPoint x="160" y="841" as="sourcePoint" />
            <mxPoint x="110" y="880" as="targetPoint" />
          </mxGeometry>
        </mxCell>
        <mxCell id="TS2SDkIP9VQhJ0hy-PQh-113" value="" style="shape=table;startSize=0;container=1;collapsible=0;childLayout=tableLayout;fontSize=16;fillColor=#ffe6cc;strokeColor=#d79b00;" vertex="1" parent="1">
          <mxGeometry x="273" y="880" width="46" height="30" as="geometry" />
        </mxCell>
        <mxCell id="TS2SDkIP9VQhJ0hy-PQh-114" value="" style="shape=tableRow;horizontal=0;startSize=0;swimlaneHead=0;swimlaneBody=0;strokeColor=inherit;top=0;left=0;bottom=0;right=0;collapsible=0;dropTarget=0;fillColor=none;points=[[0,0.5],[1,0.5]];portConstraint=eastwest;fontSize=16;" vertex="1" parent="TS2SDkIP9VQhJ0hy-PQh-113">
          <mxGeometry width="46" height="30" as="geometry" />
        </mxCell>
        <mxCell id="TS2SDkIP9VQhJ0hy-PQh-115" style="shape=partialRectangle;html=1;whiteSpace=wrap;connectable=0;strokeColor=inherit;overflow=hidden;fillColor=none;top=0;left=0;bottom=0;right=0;pointerEvents=1;fontSize=16;" vertex="1" parent="TS2SDkIP9VQhJ0hy-PQh-114">
          <mxGeometry width="46" height="30" as="geometry">
            <mxRectangle width="46" height="30" as="alternateBounds" />
          </mxGeometry>
        </mxCell>
        <mxCell id="TS2SDkIP9VQhJ0hy-PQh-116" value="" style="endArrow=classic;html=1;rounded=0;exitX=0.082;exitY=0.956;exitDx=0;exitDy=0;exitPerimeter=0;" edge="1" parent="1">
          <mxGeometry width="50" height="50" relative="1" as="geometry">
            <mxPoint x="296.5" y="840" as="sourcePoint" />
            <mxPoint x="296" y="880" as="targetPoint" />
          </mxGeometry>
        </mxCell>
        <mxCell id="TS2SDkIP9VQhJ0hy-PQh-117" value="" style="endArrow=classic;html=1;rounded=0;exitX=0.865;exitY=1.022;exitDx=0;exitDy=0;exitPerimeter=0;" edge="1" parent="1">
          <mxGeometry width="50" height="50" relative="1" as="geometry">
            <mxPoint x="353" y="841" as="sourcePoint" />
            <mxPoint x="303" y="880" as="targetPoint" />
          </mxGeometry>
        </mxCell>
        <mxCell id="TS2SDkIP9VQhJ0hy-PQh-118" value="__shfl_xor_sync" style="text;html=1;align=center;verticalAlign=middle;whiteSpace=wrap;rounded=0;fontSize=15;" vertex="1" parent="1">
          <mxGeometry x="350" y="850" width="144" height="30" as="geometry" />
        </mxCell>
        <mxCell id="TS2SDkIP9VQhJ0hy-PQh-119" value="find the best combine error" style="text;html=1;align=center;verticalAlign=middle;whiteSpace=wrap;rounded=0;fontSize=15;" vertex="1" parent="1">
          <mxGeometry x="350" y="880" width="240" height="30" as="geometry" />
        </mxCell>
        <mxCell id="TS2SDkIP9VQhJ0hy-PQh-120" value="" style="shape=table;startSize=0;container=1;collapsible=0;childLayout=tableLayout;fontSize=16;" vertex="1" parent="1">
          <mxGeometry x="80" y="1010" width="189" height="40" as="geometry" />
        </mxCell>
        <mxCell id="TS2SDkIP9VQhJ0hy-PQh-125" value="" style="shape=tableRow;horizontal=0;startSize=0;swimlaneHead=0;swimlaneBody=0;strokeColor=inherit;top=0;left=0;bottom=0;right=0;collapsible=0;dropTarget=0;fillColor=none;points=[[0,0.5],[1,0.5]];portConstraint=eastwest;fontSize=16;" vertex="1" parent="TS2SDkIP9VQhJ0hy-PQh-120">
          <mxGeometry width="189" height="40" as="geometry" />
        </mxCell>
        <mxCell id="TS2SDkIP9VQhJ0hy-PQh-126" value="" style="shape=partialRectangle;html=1;whiteSpace=wrap;connectable=0;strokeColor=#82b366;overflow=hidden;fillColor=#d5e8d4;top=0;left=0;bottom=0;right=0;pointerEvents=1;fontSize=16;" vertex="1" parent="TS2SDkIP9VQhJ0hy-PQh-125">
          <mxGeometry width="31" height="40" as="geometry">
            <mxRectangle width="31" height="40" as="alternateBounds" />
          </mxGeometry>
        </mxCell>
        <mxCell id="TS2SDkIP9VQhJ0hy-PQh-127" value="" style="shape=partialRectangle;html=1;whiteSpace=wrap;connectable=0;strokeColor=#82b366;overflow=hidden;fillColor=#d5e8d4;top=0;left=0;bottom=0;right=0;pointerEvents=1;fontSize=16;" vertex="1" parent="TS2SDkIP9VQhJ0hy-PQh-125">
          <mxGeometry x="31" width="32" height="40" as="geometry">
            <mxRectangle width="32" height="40" as="alternateBounds" />
          </mxGeometry>
        </mxCell>
        <mxCell id="TS2SDkIP9VQhJ0hy-PQh-128" value="" style="shape=partialRectangle;html=1;whiteSpace=wrap;connectable=0;strokeColor=#82b366;overflow=hidden;fillColor=#d5e8d4;top=0;left=0;bottom=0;right=0;pointerEvents=1;fontSize=16;" vertex="1" parent="TS2SDkIP9VQhJ0hy-PQh-125">
          <mxGeometry x="63" width="31" height="40" as="geometry">
            <mxRectangle width="31" height="40" as="alternateBounds" />
          </mxGeometry>
        </mxCell>
        <mxCell id="TS2SDkIP9VQhJ0hy-PQh-133" style="shape=partialRectangle;html=1;whiteSpace=wrap;connectable=0;strokeColor=#82b366;overflow=hidden;fillColor=#d5e8d4;top=0;left=0;bottom=0;right=0;pointerEvents=1;fontSize=16;" vertex="1" parent="TS2SDkIP9VQhJ0hy-PQh-125">
          <mxGeometry x="94" width="32" height="40" as="geometry">
            <mxRectangle width="32" height="40" as="alternateBounds" />
          </mxGeometry>
        </mxCell>
        <mxCell id="TS2SDkIP9VQhJ0hy-PQh-134" style="shape=partialRectangle;html=1;whiteSpace=wrap;connectable=0;strokeColor=#b85450;overflow=hidden;fillColor=#f8cecc;top=0;left=0;bottom=0;right=0;pointerEvents=1;fontSize=16;" vertex="1" parent="TS2SDkIP9VQhJ0hy-PQh-125">
          <mxGeometry x="126" width="31" height="40" as="geometry">
            <mxRectangle width="31" height="40" as="alternateBounds" />
          </mxGeometry>
        </mxCell>
        <mxCell id="TS2SDkIP9VQhJ0hy-PQh-135" style="shape=partialRectangle;html=1;whiteSpace=wrap;connectable=0;strokeColor=#9673a6;overflow=hidden;fillColor=#e1d5e7;top=0;left=0;bottom=0;right=0;pointerEvents=1;fontSize=16;" vertex="1" parent="TS2SDkIP9VQhJ0hy-PQh-125">
          <mxGeometry x="157" width="32" height="40" as="geometry">
            <mxRectangle width="32" height="40" as="alternateBounds" />
          </mxGeometry>
        </mxCell>
        <mxCell id="TS2SDkIP9VQhJ0hy-PQh-137" value="" style="shape=table;startSize=0;container=1;collapsible=0;childLayout=tableLayout;fontSize=16;fillColor=#f8cecc;strokeColor=#b85450;" vertex="1" parent="1">
          <mxGeometry x="80" y="950" width="46" height="30" as="geometry" />
        </mxCell>
        <mxCell id="TS2SDkIP9VQhJ0hy-PQh-138" value="" style="shape=tableRow;horizontal=0;startSize=0;swimlaneHead=0;swimlaneBody=0;strokeColor=inherit;top=0;left=0;bottom=0;right=0;collapsible=0;dropTarget=0;fillColor=none;points=[[0,0.5],[1,0.5]];portConstraint=eastwest;fontSize=16;" vertex="1" parent="TS2SDkIP9VQhJ0hy-PQh-137">
          <mxGeometry width="46" height="30" as="geometry" />
        </mxCell>
        <mxCell id="TS2SDkIP9VQhJ0hy-PQh-139" style="shape=partialRectangle;html=1;whiteSpace=wrap;connectable=0;strokeColor=inherit;overflow=hidden;fillColor=none;top=0;left=0;bottom=0;right=0;pointerEvents=1;fontSize=16;" vertex="1" parent="TS2SDkIP9VQhJ0hy-PQh-138">
          <mxGeometry width="46" height="30" as="geometry">
            <mxRectangle width="46" height="30" as="alternateBounds" />
          </mxGeometry>
        </mxCell>
        <mxCell id="TS2SDkIP9VQhJ0hy-PQh-140" value="" style="endArrow=classic;html=1;rounded=0;exitX=0.536;exitY=1.133;exitDx=0;exitDy=0;exitPerimeter=0;" edge="1" parent="1" source="TS2SDkIP9VQhJ0hy-PQh-109">
          <mxGeometry width="50" height="50" relative="1" as="geometry">
            <mxPoint x="390" y="640" as="sourcePoint" />
            <mxPoint x="105" y="950" as="targetPoint" />
          </mxGeometry>
        </mxCell>
        <mxCell id="TS2SDkIP9VQhJ0hy-PQh-141" value="" style="shape=table;startSize=0;container=1;collapsible=0;childLayout=tableLayout;fontSize=16;fillColor=#ffe6cc;strokeColor=#d79b00;" vertex="1" parent="1">
          <mxGeometry x="275" y="950" width="46" height="30" as="geometry" />
        </mxCell>
        <mxCell id="TS2SDkIP9VQhJ0hy-PQh-142" value="" style="shape=tableRow;horizontal=0;startSize=0;swimlaneHead=0;swimlaneBody=0;strokeColor=inherit;top=0;left=0;bottom=0;right=0;collapsible=0;dropTarget=0;fillColor=none;points=[[0,0.5],[1,0.5]];portConstraint=eastwest;fontSize=16;" vertex="1" parent="TS2SDkIP9VQhJ0hy-PQh-141">
          <mxGeometry width="46" height="30" as="geometry" />
        </mxCell>
        <mxCell id="TS2SDkIP9VQhJ0hy-PQh-143" style="shape=partialRectangle;html=1;whiteSpace=wrap;connectable=0;strokeColor=inherit;overflow=hidden;fillColor=none;top=0;left=0;bottom=0;right=0;pointerEvents=1;fontSize=16;" vertex="1" parent="TS2SDkIP9VQhJ0hy-PQh-142">
          <mxGeometry width="46" height="30" as="geometry">
            <mxRectangle width="46" height="30" as="alternateBounds" />
          </mxGeometry>
        </mxCell>
        <mxCell id="TS2SDkIP9VQhJ0hy-PQh-144" value="" style="endArrow=classic;html=1;rounded=0;exitX=0.529;exitY=1.022;exitDx=0;exitDy=0;exitPerimeter=0;entryX=0.5;entryY=0;entryDx=0;entryDy=0;entryPerimeter=0;" edge="1" parent="1" source="TS2SDkIP9VQhJ0hy-PQh-114" target="TS2SDkIP9VQhJ0hy-PQh-142">
          <mxGeometry width="50" height="50" relative="1" as="geometry">
            <mxPoint x="112" y="924" as="sourcePoint" />
            <mxPoint x="109" y="957" as="targetPoint" />
          </mxGeometry>
        </mxCell>
        <mxCell id="TS2SDkIP9VQhJ0hy-PQh-145" value="" style="edgeStyle=elbowEdgeStyle;elbow=horizontal;endArrow=classic;html=1;curved=0;rounded=0;endSize=8;startSize=8;exitX=0;exitY=0.5;exitDx=0;exitDy=0;entryX=0;entryY=0.5;entryDx=0;entryDy=0;" edge="1" parent="1" source="TS2SDkIP9VQhJ0hy-PQh-85" target="TS2SDkIP9VQhJ0hy-PQh-138">
          <mxGeometry width="50" height="50" relative="1" as="geometry">
            <mxPoint x="390" y="640" as="sourcePoint" />
            <mxPoint x="440" y="590" as="targetPoint" />
            <Array as="points">
              <mxPoint x="50" y="850" />
            </Array>
          </mxGeometry>
        </mxCell>
        <mxCell id="TS2SDkIP9VQhJ0hy-PQh-146" value="" style="edgeStyle=elbowEdgeStyle;elbow=horizontal;endArrow=classic;html=1;curved=0;rounded=0;endSize=8;startSize=8;exitX=0;exitY=0.5;exitDx=0;exitDy=0;entryX=0;entryY=0.5;entryDx=0;entryDy=0;" edge="1" parent="1">
          <mxGeometry width="50" height="50" relative="1" as="geometry">
            <mxPoint x="273" y="720" as="sourcePoint" />
            <mxPoint x="273" y="960" as="targetPoint" />
            <Array as="points">
              <mxPoint x="243" y="845" />
            </Array>
          </mxGeometry>
        </mxCell>
        <mxCell id="TS2SDkIP9VQhJ0hy-PQh-147" value="" style="endArrow=classic;html=1;rounded=0;exitX=0.464;exitY=1.156;exitDx=0;exitDy=0;exitPerimeter=0;entryX=0.779;entryY=-0.05;entryDx=0;entryDy=0;entryPerimeter=0;" edge="1" parent="1" source="TS2SDkIP9VQhJ0hy-PQh-138" target="TS2SDkIP9VQhJ0hy-PQh-125">
          <mxGeometry width="50" height="50" relative="1" as="geometry">
            <mxPoint x="390" y="640" as="sourcePoint" />
            <mxPoint x="440" y="590" as="targetPoint" />
          </mxGeometry>
        </mxCell>
        <mxCell id="TS2SDkIP9VQhJ0hy-PQh-148" value="" style="endArrow=classic;html=1;rounded=0;exitX=0.616;exitY=0.978;exitDx=0;exitDy=0;exitPerimeter=0;entryX=0.91;entryY=-0.033;entryDx=0;entryDy=0;entryPerimeter=0;fillColor=#ffe6cc;strokeColor=#d79b00;" edge="1" parent="1" source="TS2SDkIP9VQhJ0hy-PQh-142" target="TS2SDkIP9VQhJ0hy-PQh-125">
          <mxGeometry width="50" height="50" relative="1" as="geometry">
            <mxPoint x="111" y="995" as="sourcePoint" />
            <mxPoint x="257" y="1007" as="targetPoint" />
          </mxGeometry>
        </mxCell>
        <mxCell id="TS2SDkIP9VQhJ0hy-PQh-149" value="total_error = best_integer_count_error + error" style="text;html=1;align=center;verticalAlign=middle;whiteSpace=wrap;rounded=0;fontSize=15;" vertex="1" parent="1">
          <mxGeometry x="342" y="950" width="316" height="30" as="geometry" />
        </mxCell>
        <mxCell id="TS2SDkIP9VQhJ0hy-PQh-158" value="gpu sort" style="text;html=1;align=center;verticalAlign=middle;whiteSpace=wrap;rounded=0;fontSize=15;" vertex="1" parent="1">
          <mxGeometry x="290" y="1060" width="96" height="30" as="geometry" />
        </mxCell>
        <mxCell id="TS2SDkIP9VQhJ0hy-PQh-159" value="" style="shape=curlyBracket;whiteSpace=wrap;html=1;rounded=1;flipH=1;labelPosition=right;verticalLabelPosition=middle;align=left;verticalAlign=middle;direction=north;" vertex="1" parent="1">
          <mxGeometry x="77" y="1140" width="180" height="20" as="geometry" />
        </mxCell>
        <mxCell id="TS2SDkIP9VQhJ0hy-PQh-168" value="" style="shape=table;startSize=0;container=1;collapsible=0;childLayout=tableLayout;fontSize=16;" vertex="1" parent="1">
          <mxGeometry x="77" y="1080" width="189" height="40" as="geometry" />
        </mxCell>
        <mxCell id="TS2SDkIP9VQhJ0hy-PQh-169" value="" style="shape=tableRow;horizontal=0;startSize=0;swimlaneHead=0;swimlaneBody=0;strokeColor=inherit;top=0;left=0;bottom=0;right=0;collapsible=0;dropTarget=0;fillColor=none;points=[[0,0.5],[1,0.5]];portConstraint=eastwest;fontSize=16;" vertex="1" parent="TS2SDkIP9VQhJ0hy-PQh-168">
          <mxGeometry width="189" height="40" as="geometry" />
        </mxCell>
        <mxCell id="TS2SDkIP9VQhJ0hy-PQh-170" value="" style="shape=partialRectangle;html=1;whiteSpace=wrap;connectable=0;strokeColor=#b85450;overflow=hidden;fillColor=#f8cecc;top=0;left=0;bottom=0;right=0;pointerEvents=1;fontSize=16;" vertex="1" parent="TS2SDkIP9VQhJ0hy-PQh-169">
          <mxGeometry width="31" height="40" as="geometry">
            <mxRectangle width="31" height="40" as="alternateBounds" />
          </mxGeometry>
        </mxCell>
        <mxCell id="TS2SDkIP9VQhJ0hy-PQh-171" value="" style="shape=partialRectangle;html=1;whiteSpace=wrap;connectable=0;strokeColor=#82b366;overflow=hidden;fillColor=#d5e8d4;top=0;left=0;bottom=0;right=0;pointerEvents=1;fontSize=16;" vertex="1" parent="TS2SDkIP9VQhJ0hy-PQh-169">
          <mxGeometry x="31" width="32" height="40" as="geometry">
            <mxRectangle width="32" height="40" as="alternateBounds" />
          </mxGeometry>
        </mxCell>
        <mxCell id="TS2SDkIP9VQhJ0hy-PQh-172" value="" style="shape=partialRectangle;html=1;whiteSpace=wrap;connectable=0;strokeColor=#9673a6;overflow=hidden;fillColor=#e1d5e7;top=0;left=0;bottom=0;right=0;pointerEvents=1;fontSize=16;" vertex="1" parent="TS2SDkIP9VQhJ0hy-PQh-169">
          <mxGeometry x="63" width="31" height="40" as="geometry">
            <mxRectangle width="31" height="40" as="alternateBounds" />
          </mxGeometry>
        </mxCell>
        <mxCell id="TS2SDkIP9VQhJ0hy-PQh-173" style="shape=partialRectangle;html=1;whiteSpace=wrap;connectable=0;strokeColor=#82b366;overflow=hidden;fillColor=#d5e8d4;top=0;left=0;bottom=0;right=0;pointerEvents=1;fontSize=16;" vertex="1" parent="TS2SDkIP9VQhJ0hy-PQh-169">
          <mxGeometry x="94" width="32" height="40" as="geometry">
            <mxRectangle width="32" height="40" as="alternateBounds" />
          </mxGeometry>
        </mxCell>
        <mxCell id="TS2SDkIP9VQhJ0hy-PQh-174" style="shape=partialRectangle;html=1;whiteSpace=wrap;connectable=0;strokeColor=#82b366;overflow=hidden;fillColor=#d5e8d4;top=0;left=0;bottom=0;right=0;pointerEvents=1;fontSize=16;" vertex="1" parent="TS2SDkIP9VQhJ0hy-PQh-169">
          <mxGeometry x="126" width="31" height="40" as="geometry">
            <mxRectangle width="31" height="40" as="alternateBounds" />
          </mxGeometry>
        </mxCell>
        <mxCell id="TS2SDkIP9VQhJ0hy-PQh-175" style="shape=partialRectangle;html=1;whiteSpace=wrap;connectable=0;strokeColor=#82b366;overflow=hidden;fillColor=#d5e8d4;top=0;left=0;bottom=0;right=0;pointerEvents=1;fontSize=16;" vertex="1" parent="TS2SDkIP9VQhJ0hy-PQh-169">
          <mxGeometry x="157" width="32" height="40" as="geometry">
            <mxRectangle width="32" height="40" as="alternateBounds" />
          </mxGeometry>
        </mxCell>
        <mxCell id="TS2SDkIP9VQhJ0hy-PQh-177" value="shared memory" style="text;html=1;align=center;verticalAlign=middle;whiteSpace=wrap;rounded=0;fontSize=15;" vertex="1" parent="1">
          <mxGeometry x="111.25" y="1169" width="126.5" height="30" as="geometry" />
        </mxCell>
      </root>
    </mxGraphModel>
  </diagram>
</mxfile>
